<?xml version="1.0" standalone="no"?><svg xmlns:xlink="http://www.w3.org/1999/xlink" xmlns="http://www.w3.org/2000/svg" viewBox="0 0 1000 2666.6666666666665" preserveAspectRatio="xMaxYMax slice"><g transform="scale(4.6865846514352665)"><rect x="0" y="0" width="213.375" height="569" fill="#ffffff"/><rect x="0" y="0" width="71.13" height="71.13" fill="#9bcca9"/><path d="M 0 71.13 A 71.13 71.13 0 0 1  71.13 0 L 71.13 71.13L0 71.13" fill="#57aa6f"/><rect x="71.125" y="0" width="71.125" height="71.125" fill="#ffffff"/><rect x="71.13" y="0" width="35.56" height="35.56" fill="#0e9c1c"/><path d="M 71.13 35.56 A 35.56 35.56 0 0 0 106.69 0 L 71.13 0L71.13 35.56" fill="#027f26"/><rect x="106.69" y="0" width="35.56" height="35.56" fill="#fcfefd"/><path d="M 106.69 0 A 35.56 35.56 0 0 0 142.25 35.56 L 142.25 0L106.69 0" fill="#cbe8c1"/><rect x="71.13" y="35.56" width="35.56" height="35.56" fill="#57b338"/><path d="M 71.13 35.56 A 35.56 35.56 0 0 1 106.69 71.12 L 71.13 71.12L71.13 35.56" fill="#c2e4b7"/><rect x="106.69" y="35.56" width="35.56" height="35.56" fill="#66ba4a"/><path d="M 106.69 71.12 A 35.56 35.56 0 0 1  142.25 35.56 L 142.25 71.12L106.69 71.12" fill="#a7dbac"/><rect x="142.25" y="0" width="71.13" height="71.13" fill="#cce8c2"/><polygon points="142.25,0 213.38,0 142.25,71.13" fill="#daf0dc"/><rect x="0" y="71.13" width="71.13" height="71.13" fill="#28a735"/><polygon points="71.13,71.13 71.13,142.26 0,142.26" fill="#ddf1df"/><rect x="71.125" y="71.125" width="71.125" height="71.125" fill="#ffffff"/><rect x="71.13" y="71.13" width="35.56" height="35.56" fill="#a9e6b2"/><polygon points="106.69,71.13 106.69,106.69 71.13,106.69" fill="#88c399"/><rect x="106.69" y="71.13" width="35.56" height="35.56" fill="#53cd66"/><polygon points="106.69,71.13 142.25,106.69 106.69,106.69" fill="#33a30d"/><rect x="71.13" y="106.69" width="35.56" height="35.56" fill="#daeed3"/><polygon points="71.13,106.69 106.69,106.69 106.69,142.25" fill="#4daf2c"/><rect x="106.69" y="106.69" width="35.56" height="35.56" fill="#91ce7d"/><polygon points="106.69,106.69 142.25,106.69 106.69,142.25" fill="#48a262"/><rect x="142.25" y="71.13" width="71.13" height="71.13" fill="#108632"/><path d="M 142.25 142.26 A 71.13 71.13 0 0 1  213.38 71.13 L 142.25 142.26 A 71.13 71.13 0 0 0 213.38 71.13" fill="#bbddc5"/><rect x="0" y="142.25" width="71.125" height="71.125" fill="#ffffff"/><rect x="0" y="142.25" width="35.56" height="35.56" fill="#4fb75a"/><polygon points="35.56,142.25 35.56,177.81 0,177.81" fill="#64d275"/><rect x="35.56" y="142.25" width="35.56" height="35.56" fill="#9ce2a6"/><polygon points="35.56,142.25 71.12,142.25 35.56,177.81" fill="#89ca73"/><rect x="0" y="177.81" width="35.56" height="35.56" fill="#eff9f0"/><polygon points="0,177.81 35.56,177.81 35.56,213.37" fill="#a6daab"/><rect x="35.56" y="177.81" width="35.56" height="35.56" fill="#a8dbae"/><polygon points="35.56,177.81 71.12,213.37 35.56,213.37" fill="#a0e4aa"/><rect x="71.125" y="142.25" width="71.125" height="71.125" fill="#ffffff"/><rect x="71.13" y="142.25" width="35.56" height="35.56" fill="#6cd57b"/><path d="M 71.13 177.81 A 35.56 35.56 0 0 1  106.69 142.25 L 106.69 177.81L71.13 177.81" fill="#23c03a"/><rect x="106.69" y="142.25" width="35.56" height="35.56" fill="#5cac73"/><path d="M 106.69 142.25 A 35.56 35.56 0 0 1 142.25 177.81 L 106.69 177.81L106.69 142.25" fill="#40a91c"/><rect x="71.13" y="177.81" width="35.56" height="35.56" fill="#8ede9a"/><path d="M 71.13 177.81 A 35.56 35.56 0 0 0 106.69 213.37 L 106.69 177.81L71.13 177.81" fill="#effaf0"/><rect x="106.69" y="177.81" width="35.56" height="35.56" fill="#4daf2c"/><path d="M 106.69 213.37 A 35.56 35.56 0 0 0 142.25 177.81 L 106.69 177.81L106.69 213.37" fill="#e9f9ec"/><rect x="142.25" y="142.25" width="71.125" height="71.125" fill="#ffffff"/><rect x="142.25" y="142.25" width="35.56" height="35.56" fill="#40a91d"/><path d="M 142.25 142.25 A 35.56 35.56 0 0 0 177.81 177.81 L 177.81 142.25L142.25 142.25" fill="#b9e2bd"/><rect x="177.81" y="142.25" width="35.56" height="35.56" fill="#f9fcfa"/><path d="M 177.81 177.81 A 35.56 35.56 0 0 0 213.37 142.25 L 177.81 142.25L177.81 177.81" fill="#b9dfac"/><rect x="142.25" y="177.81" width="35.56" height="35.56" fill="#037f27"/><path d="M 142.25 213.37 A 35.56 35.56 0 0 1  177.81 177.81 L 177.81 213.37L142.25 213.37" fill="#bce1b0"/><rect x="177.81" y="177.81" width="35.56" height="35.56" fill="#b0e8b8"/><path d="M 177.81 177.81 A 35.56 35.56 0 0 1 213.37 213.37 L 177.81 213.37L177.81 177.81" fill="#429f5d"/><rect x="0" y="213.375" width="71.125" height="71.125" fill="#ffffff"/><rect x="0" y="213.38" width="35.56" height="35.56" fill="#64bf6d"/><path d="M 0 248.94 A 35.56 35.56 0 0 1  35.56 213.38 L 35.56 248.94L0 248.94" fill="#ecf9ee"/><rect x="35.56" y="213.38" width="35.56" height="35.56" fill="#86cd8d"/><path d="M 35.56 213.38 A 35.56 35.56 0 0 1 71.12 248.94 L 35.56 248.94L35.56 213.38" fill="#3fb04a"/><rect x="0" y="248.94" width="35.56" height="35.56" fill="#e8f3eb"/><path d="M 0 248.94 A 35.56 35.56 0 0 0 35.56 284.5 L 35.56 248.94L0 248.94" fill="#97caa6"/><rect x="35.56" y="248.94" width="35.56" height="35.56" fill="#44ab22"/><path d="M 35.56 284.5 A 35.56 35.56 0 0 0 71.12 248.94 L 35.56 248.94L35.56 284.5" fill="#05b720"/><rect x="71.125" y="213.375" width="71.125" height="71.125" fill="#ffffff"/><rect x="71.13" y="213.38" width="35.56" height="35.56" fill="#28a735"/><polygon points="106.69,213.38 106.69,248.94 71.13,248.94" fill="#f0fbf2"/><rect x="106.69" y="213.38" width="35.56" height="35.56" fill="#1aa127"/><polygon points="106.69,213.38 142.25,248.94 106.69,248.94" fill="#cff1d4"/><rect x="71.13" y="248.94" width="35.56" height="35.56" fill="#c6eecc"/><polygon points="71.13,248.94 106.69,248.94 71.13,284.5" fill="#c7e3cf"/><rect x="106.69" y="248.94" width="35.56" height="35.56" fill="#36ac42"/><polygon points="106.69,248.94 142.25,248.94 142.25,284.5" fill="#d2ebca"/><rect x="142.25" y="213.375" width="71.125" height="71.125" fill="#ffffff"/><rect x="142.25" y="213.38" width="35.56" height="35.56" fill="#d7f3db"/><polygon points="177.81,213.38 177.81,248.94 142.25,248.94" fill="#95cf82"/><rect x="177.81" y="213.38" width="35.56" height="35.56" fill="#6eb582"/><polygon points="177.81,213.38 213.37,248.94 177.81,248.94" fill="#a4d693"/><rect x="142.25" y="248.94" width="35.56" height="35.56" fill="#e2f7e5"/><polygon points="142.25,248.94 177.81,248.94 177.81,284.5" fill="#54b234"/><rect x="177.81" y="248.94" width="35.56" height="35.56" fill="#e4f7e7"/><polygon points="177.81,248.94 213.37,248.94 177.81,284.5" fill="#e6f5e8"/><rect x="0" y="284.5" width="71.13" height="71.13" fill="#129e20"/><rect x="0" y="284.5" width="71.13" height="71.13" fill="#daeed3"/><rect x="71.13" y="284.5" width="71.13" height="71.13" fill="#b8ebc0"/><polygon points="142.26,284.5 142.26,355.63 71.13,355.63" fill="#2a9f02"/><rect x="142.25" y="284.5" width="71.125" height="71.125" fill="#ffffff"/><rect x="142.25" y="284.5" width="35.56" height="35.56" fill="#299e01"/><path d="M 142.25 284.5 A 35.56 35.56 0 0 1 177.81 320.06 L 142.25 320.06L142.25 284.5" fill="#289247"/><rect x="177.81" y="284.5" width="35.56" height="35.56" fill="#add5b9"/><path d="M 177.81 320.06 A 35.56 35.56 0 0 1  213.37 284.5 L 213.37 320.06L177.81 320.06" fill="#82bf93"/><rect x="142.25" y="320.06" width="35.56" height="35.56" fill="#9dcdab"/><path d="M 142.25 355.62 A 35.56 35.56 0 0 0 177.81 320.06 L 142.25 320.06L142.25 355.62" fill="#77c15d"/><rect x="177.81" y="320.06" width="35.56" height="35.56" fill="#cde6d4"/><path d="M 177.81 320.06 A 35.56 35.56 0 0 0 213.37 355.62 L 213.37 320.06L177.81 320.06" fill="#4ccb5f"/><rect x="0" y="355.63" width="71.13" height="71.13" fill="#afe8b7"/><rect x="0" y="355.63" width="71.13" height="71.13" fill="#48ca5c"/><rect x="71.125" y="355.625" width="71.125" height="71.125" fill="#ffffff"/><rect x="71.13" y="355.63" width="35.56" height="35.56" fill="#f5fcf6"/><polygon points="106.69,355.63 106.69,391.19 71.13,391.19" fill="#56ce68"/><rect x="106.69" y="355.63" width="35.56" height="35.56" fill="#65b948"/><polygon points="106.69,355.63 142.25,391.19 106.69,391.19" fill="#eaf6e7"/><rect x="71.13" y="391.19" width="35.56" height="35.56" fill="#c3eec9"/><polygon points="71.13,391.19 106.69,391.19 71.13,426.75" fill="#03b61e"/><rect x="106.69" y="391.19" width="35.56" height="35.56" fill="#e6f5e7"/><polygon points="106.69,391.19 142.25,391.19 142.25,426.75" fill="#95e0a0"/><rect x="142.25" y="355.63" width="71.13" height="71.13" fill="#60bd69"/><rect x="142.25" y="355.63" width="71.13" height="71.13" fill="#3dc751"/><rect x="0" y="426.75" width="71.125" height="71.125" fill="#ffffff"/><rect x="0" y="426.75" width="35.56" height="35.56" fill="#dbf0dd"/><path d="M 0 462.31 A 35.56 35.56 0 0 1  35.56 426.75 L 35.56 462.31L0 462.31" fill="#dff2e1"/><rect x="35.56" y="426.75" width="35.56" height="35.56" fill="#58ba62"/><path d="M 35.56 426.75 A 35.56 35.56 0 0 1 71.12 462.31 L 35.56 462.31L35.56 426.75" fill="#85c86e"/><rect x="0" y="462.31" width="35.56" height="35.56" fill="#e9f4ec"/><path d="M 0 462.31 A 35.56 35.56 0 0 0 35.56 497.87 L 35.56 462.31L0 462.31" fill="#c9efcf"/><rect x="35.56" y="462.31" width="35.56" height="35.56" fill="#72d681"/><path d="M 35.56 497.87 A 35.56 35.56 0 0 0 71.12 462.31 L 35.56 462.31L35.56 497.87" fill="#b8eabf"/><rect x="71.13" y="426.75" width="71.13" height="71.13" fill="#98e1a3"/><polygon points="71.13,426.75 142.26,497.88 71.13,497.88" fill="#bae0ae"/><rect x="142.25" y="426.75" width="71.13" height="71.13" fill="#c2edc9"/><rect x="142.25" y="426.75" width="71.13" height="71.13" fill="#b9dcc3"/><rect x="0" y="497.875" width="71.125" height="71.125" fill="#ffffff"/><rect x="0" y="497.88" width="35.56" height="35.56" fill="#5ab53b"/><polygon points="35.56,497.88 35.56,533.44 0,533.44" fill="#d3ebcb"/><rect x="35.56" y="497.88" width="35.56" height="35.56" fill="#9dcdab"/><polygon points="35.56,497.88 71.12,497.88 35.56,533.44" fill="#5db63f"/><rect x="0" y="533.44" width="35.56" height="35.56" fill="#32c448"/><polygon points="0,533.44 35.56,533.44 35.56,569" fill="#6bc274"/><rect x="35.56" y="533.44" width="35.56" height="35.56" fill="#c3e1cc"/><polygon points="35.56,533.44 71.12,569 35.56,569" fill="#f1fbf3"/><rect x="71.125" y="497.875" width="71.125" height="71.125" fill="#ffffff"/><rect x="71.13" y="497.88" width="35.56" height="35.56" fill="#5aab72"/><path d="M 71.13 533.44 A 35.56 35.56 0 0 0 106.69 497.88 L 71.13 497.88L71.13 533.44" fill="#a9dcae"/><rect x="106.69" y="497.88" width="35.56" height="35.56" fill="#149e22"/><path d="M 106.69 497.88 A 35.56 35.56 0 0 0 142.25 533.44 L 142.25 497.88L106.69 497.88" fill="#6ec376"/><rect x="71.13" y="533.44" width="35.56" height="35.56" fill="#52a76b"/><path d="M 71.13 533.44 A 35.56 35.56 0 0 1 106.69 569 L 71.13 569L71.13 533.44" fill="#3ec752"/><rect x="106.69" y="533.44" width="35.56" height="35.56" fill="#a1d8a6"/><path d="M 106.69 569 A 35.56 35.56 0 0 1  142.25 533.44 L 142.25 569L106.69 569" fill="#64b947"/><rect x="142.25" y="497.88" width="71.13" height="71.13" fill="#9fcead"/><polygon points="142.25,497.88 213.38,569.01 142.25,569.01" fill="#eff8ec"/></g></svg>